<svg width="194" height="194" version="1.1" viewBox="0 0 51.329 51.329" xmlns="http://www.w3.org/2000/svg">
 <defs>
  <clipPath id="clipPath116">
   <path d="m0 500h500v-500h-500z"/>
  </clipPath>
 </defs>
 <g transform="matrix(.85339 0 0 -.85339 -296.44 148.03)" fill="#fff">
  <g clip-path="url(#clipPath116)" fill="#fff">
   <g transform="translate(387.07 158.51)">
    <path d="m0 0c-0.765 1.29-1.695 2.493-2.783 3.581-3.412 3.412-7.948 5.291-12.773 5.291s-9.361-1.879-12.772-5.29v-1e-3c-3.412-3.411-5.29-7.947-5.29-12.771 0-4.826 1.878-9.362 5.29-12.773 1.088-1.088 2.292-2.018 3.581-2.783-1.157 6.626 0.817 13.693 5.935 18.81 5.119 5.119 12.185 7.094 18.812 5.936" fill="#fff"/>
   </g>
   <g transform="translate(398.49 122.35)">
    <path d="m0 0c11.623 11.623 11.623 30.469 0 42.093-11.624 11.623-30.47 11.623-42.093 0 8.349 8.347 21.884 8.347 30.232 0 8.348-8.349 8.348-21.884 0-30.233-8.348-8.348-21.883-8.348-30.232 0-8.348 8.349-8.348 21.884 0 30.233-11.623-11.624-11.623-30.47 0-42.093s30.469-11.623 42.093 0" fill="#fff"/>
   </g>
  </g>
 </g>
</svg>
